<?xml version="1.0" encoding="UTF-8"?>
<svg id="Layer_1" xmlns="http://www.w3.org/2000/svg" version="1.1" viewBox="0 0 209.71 29.96">
  <!-- Generator: Adobe Illustrator 30.2.1, SVG Export Plug-In . SVG Version: 2.1.1 Build 1)  -->
  <defs>
    <style>
      .st0 {
        stroke: #FFFFFF;
        stroke-width: 1.8px;
      }

      .st0, .st1 {
        fill: none;
      }

      .st1 {
        stroke: #FFFFFF;
        stroke-width: 1.24px;
      }

      .st2 {
        fill: #FFFFFF;
      }
    </style>
  </defs>
  <path class="st2" d="M3.23,29.63V6.99H.35v-1.72h7.49v1.72h-2.85v22.64h-1.75Z"/>
  <path class="st2" d="M16.86,29.63V13.12h-4.49v16.51h-1.79V13.12h-.91l-.66-1.79h1.57v-6.06h1.79v6.06h4.49v-6.06h1.79v24.36h-1.79Z"/>
  <path class="st2" d="M22.68,29.63V13.05h-.95l-.66-1.75h1.61v-6.03h6.25v1.75h-4.49v4.27h4.27l.66,1.75h-4.93v14.79h4.49v1.79h-6.25Z"/>
  <path class="st2" d="M39.7,4.86l1.61.03c5.41.04,9.64,4.01,9.64,9.02s-3.8,8.59-9.46,9.16v6.19h-1.79V4.86ZM49.19,13.88c0-4.01-3.07-6.97-7.71-7.44v14.95c4.46-.3,7.71-3.46,7.71-7.51Z"/>
  <path class="st2" d="M54.52,29.63V13.05h-.95l-.66-1.75h1.61v-6.03h6.25v1.75h-4.49v4.27h4.27l.66,1.75h-4.93v14.79h4.49v1.79h-6.25Z"/>
  <path class="st2" d="M66.56,29.63V6.99h-2.89v-1.72h7.49v1.72h-2.85v22.64h-1.75Z"/>
  <path class="st2" d="M73.95,29.63V13.05h-.95l-.66-1.75h1.61v-6.03h6.25v1.75h-4.49v4.27h4.27l.66,1.75h-4.93v14.79h4.49v1.79h-6.25Z"/>
  <path class="st2" d="M93.44,29.45l-8.7-7.08v6.9h-1.79V4.76h1.31c5.52,0,9.86,3.94,9.86,8.92,0,3.97-2.52,7.14-6.79,8.55l8.96,7.21h-2.85ZM92.37,13.79c0-4.04-3.07-7-7.63-7.44v14.71c4.57-.44,7.63-3.37,7.63-7.27Z"/>
  <path class="st2" d="M98.26,27.43h2.12c2.63,0,4.2-1.35,4.2-3.62,0-.62-.18-1.31-.62-2.23l-3.8-8.25c-1.1-2.34-1.2-2.74-1.2-3.8,0-2.92,1.94-4.64,5.26-4.64h1.28v1.75h-1.42c-2.04,0-3.32,1.06-3.32,2.74,0,.55.26,1.46.55,2.15l4.2,8.87c.66,1.32.91,2.3.91,3.36,0,3.32-2.45,5.48-6.21,5.48h-1.94v-1.83Z"/>
  <path class="st2" d="M114.34,6.8c-1.61,0-3.13.63-4.28,1.78-1.15,1.15-1.78,2.68-1.78,4.31s.63,3.14,1.77,4.29c1.15,1.15,2.68,1.78,4.32,1.78s3.16-.63,4.31-1.79c1.15-1.14,1.78-2.67,1.78-4.28s-.63-3.15-1.78-4.3c-1.15-1.15-2.69-1.79-4.33-1.79ZM119.79,18.32c-1.45,1.45-3.38,2.25-5.43,2.25s-3.99-.8-5.45-2.26c-1.46-1.46-2.26-3.38-2.26-5.42s.8-3.98,2.25-5.43c1.46-1.46,3.39-2.26,5.43-2.26s4,.8,5.46,2.26c1.45,1.45,2.25,3.38,2.25,5.43s-.8,3.98-2.25,5.43Z"/>
  <path class="st2" d="M131.21,29.41V10.86l-5.11-3.1v21.66h-1.83V4.65l6.94,4.17v-3.76h1.72v24.36h-1.72Z"/>
  <path class="st2" d="M141.32,17.39c0-6.68,5.22-11.91,12.09-12.13v1.75c-6.1.47-10.26,4.67-10.26,10.41,0,5.04,3.32,9.02,8.51,10.15V11.37h1.75v18.26c-7.53-.8-12.09-5.44-12.09-12.24Z"/>
  <path class="st2" d="M166.41,29.18l-8.3-6.71v6.8h-1.79V4.86h1.31c5.52,0,9.86,3.94,9.86,8.92,0,3.97-2.52,7.14-6.79,8.55l8.56,6.85h-2.85ZM165.75,13.88c0-4.04-3.07-7-7.63-7.44v14.71c4.56-.44,7.63-3.37,7.63-7.27Z"/>
  <path class="st2" d="M195.58,25.25c0,2.92-1.57,4.71-4.09,4.71s-4.24-1.83-4.24-4.79V5.27h1.79v19.83c0,2.04.77,3.07,2.34,3.07s2.41-.99,2.41-3.03V5.27h1.79v19.98Z"/>
  <path class="st2" d="M177.34,6.58c-1.61,0-3.13.63-4.28,1.78-1.15,1.15-1.79,2.68-1.79,4.31s.63,3.14,1.77,4.29c1.15,1.15,2.68,1.78,4.32,1.78s3.16-.63,4.31-1.79c1.14-1.14,1.78-2.67,1.78-4.28s-.63-3.15-1.78-4.3c-1.15-1.15-2.69-1.79-4.33-1.79ZM182.79,18.1c-1.46,1.45-3.38,2.25-5.43,2.25s-3.99-.8-5.45-2.26c-1.46-1.45-2.26-3.38-2.26-5.42s.8-3.98,2.25-5.43c1.45-1.45,3.38-2.25,5.43-2.25s4,.8,5.46,2.25c1.45,1.45,2.25,3.38,2.25,5.43s-.8,3.98-2.25,5.43Z"/>
  <line class="st0" y1=".9" x2="209.47" y2=".9"/>
  <path class="st2" d="M3.23,29.63V6.99H.35v-1.72h7.49v1.72h-2.85v22.64h-1.75Z"/>
  <path class="st2" d="M16.86,29.63V13.12h-4.49v16.51h-1.79V13.12h-.91l-.66-1.79h1.57v-6.06h1.79v6.06h4.49v-6.06h1.79v24.36h-1.79Z"/>
  <path class="st2" d="M22.68,29.63V13.05h-.95l-.66-1.75h1.61v-6.03h6.25v1.75h-4.49v4.27h4.27l.66,1.75h-4.93v14.79h4.49v1.79h-6.25Z"/>
  <path class="st2" d="M39.7,4.86l1.61.03c5.41.04,9.64,4.01,9.64,9.02s-3.8,8.59-9.46,9.16v6.19h-1.79V4.86ZM49.19,13.88c0-4.01-3.07-6.97-7.71-7.44v14.95c4.46-.3,7.71-3.46,7.71-7.51Z"/>
  <path class="st2" d="M54.52,29.63V13.05h-.95l-.66-1.75h1.61v-6.03h6.25v1.75h-4.49v4.27h4.27l.66,1.75h-4.93v14.79h4.49v1.79h-6.25Z"/>
  <path class="st2" d="M66.56,29.63V6.99h-2.89v-1.72h7.49v1.72h-2.85v22.64h-1.75Z"/>
  <path class="st2" d="M73.95,29.63V13.05h-.95l-.66-1.75h1.61v-6.03h6.25v1.75h-4.49v4.27h4.27l.66,1.75h-4.93v14.79h4.49v1.79h-6.25Z"/>
  <path class="st2" d="M93.44,29.45l-8.7-7.08v6.9h-1.79V4.76h1.31c5.52,0,9.86,3.94,9.86,8.92,0,3.97-2.52,7.14-6.79,8.55l8.96,7.21h-2.85ZM92.37,13.79c0-4.04-3.07-7-7.63-7.44v14.71c4.57-.44,7.63-3.37,7.63-7.27Z"/>
  <path class="st2" d="M98.26,27.43h2.12c2.63,0,4.2-1.35,4.2-3.62,0-.62-.18-1.31-.62-2.23l-3.8-8.25c-1.1-2.34-1.2-2.74-1.2-3.8,0-2.92,1.94-4.64,5.26-4.64h1.28v1.75h-1.42c-2.04,0-3.32,1.06-3.32,2.74,0,.55.26,1.46.55,2.15l4.2,8.87c.66,1.32.91,2.3.91,3.36,0,3.32-2.45,5.48-6.21,5.48h-1.94v-1.83Z"/>
  <path class="st2" d="M114.34,6.8c-1.61,0-3.13.63-4.28,1.78-1.15,1.15-1.78,2.68-1.78,4.31s.63,3.14,1.77,4.29c1.15,1.15,2.68,1.78,4.32,1.78s3.16-.63,4.31-1.79c1.15-1.14,1.78-2.67,1.78-4.28s-.63-3.15-1.78-4.3c-1.15-1.15-2.69-1.79-4.33-1.79ZM119.79,18.32c-1.45,1.45-3.38,2.25-5.43,2.25s-3.99-.8-5.45-2.26c-1.46-1.46-2.26-3.38-2.26-5.42s.8-3.98,2.25-5.43c1.46-1.46,3.39-2.26,5.43-2.26s4,.8,5.46,2.26c1.45,1.45,2.25,3.38,2.25,5.43s-.8,3.98-2.25,5.43Z"/>
  <path class="st2" d="M131.21,29.41V10.86l-5.11-3.1v21.66h-1.83V4.65l6.94,4.17v-3.76h1.72v24.36h-1.72Z"/>
  <path class="st2" d="M141.32,17.39c0-6.68,5.22-11.91,12.09-12.13v1.75c-6.1.47-10.26,4.67-10.26,10.41,0,5.04,3.32,9.02,8.51,10.15V11.37h1.75v18.26c-7.53-.8-12.09-5.44-12.09-12.24Z"/>
  <path class="st2" d="M166.41,29.18l-8.3-6.71v6.8h-1.79V4.86h1.31c5.52,0,9.86,3.94,9.86,8.92,0,3.97-2.52,7.14-6.79,8.55l8.56,6.85h-2.85ZM165.75,13.88c0-4.04-3.07-7-7.63-7.44v14.71c4.56-.44,7.63-3.37,7.63-7.27Z"/>
  <path class="st2" d="M195.58,25.25c0,2.92-1.57,4.71-4.09,4.71s-4.24-1.83-4.24-4.79V5.27h1.79v19.83c0,2.04.77,3.07,2.34,3.07s2.41-.99,2.41-3.03V5.27h1.79v19.98Z"/>
  <path class="st2" d="M197.78,4.86l1.61.03c5.4.04,9.64,4.01,9.64,9.02s-3.8,8.59-9.46,9.16v6.19h-1.79V4.86ZM207.27,13.88c0-4.01-3.07-6.97-7.71-7.44v14.95c4.46-.3,7.71-3.46,7.71-7.51Z"/>
  <path class="st2" d="M177.34,6.58c-1.61,0-3.13.63-4.28,1.78-1.15,1.15-1.79,2.68-1.79,4.31s.63,3.14,1.77,4.29c1.15,1.15,2.68,1.78,4.32,1.78s3.16-.63,4.31-1.79c1.14-1.14,1.78-2.67,1.78-4.28s-.63-3.15-1.78-4.3c-1.15-1.15-2.69-1.79-4.33-1.79ZM182.79,18.1c-1.46,1.45-3.38,2.25-5.43,2.25s-3.99-.8-5.45-2.26c-1.46-1.45-2.26-3.38-2.26-5.42s.8-3.98,2.25-5.43c1.45-1.45,3.38-2.25,5.43-2.25s4,.8,5.46,2.25c1.45,1.45,2.25,3.38,2.25,5.43s-.8,3.98-2.25,5.43Z"/>
  <line class="st1" x1=".25" y1="1.02" x2="209.71" y2="1.02"/>
</svg>